<svg xmlns="http://www.w3.org/2000/svg" viewBox="0 0 200 200" width="200" height="200">
  <!-- Gradient apaisant -->
  <defs>
    <linearGradient id="gradient" x1="0%" y1="0%" x2="100%" y2="100%">
      <stop offset="0%" style="stop-color:#7B68B6;stop-opacity:1" />
      <stop offset="100%" style="stop-color:#9B8BC6;stop-opacity:1" />
    </linearGradient>
    <linearGradient id="heartGradient" x1="0%" y1="0%" x2="0%" y2="100%">
      <stop offset="0%" style="stop-color:#E8A0BF;stop-opacity:1" />
      <stop offset="100%" style="stop-color:#D8849F;stop-opacity:1" />
    </linearGradient>
  </defs>

  <!-- Cercle principal - représente la complétude et la sécurité -->
  <circle cx="100" cy="100" r="85" fill="url(#gradient)" opacity="0.15"/>

  <!-- Forme abstraite de mère et enfant -->
  <g transform="translate(100, 100)">
    <!-- Silhouette adulte (mère) -->
    <ellipse cx="0" cy="-20" rx="25" ry="35" fill="url(#gradient)" opacity="0.8"/>
    <circle cx="0" cy="-45" r="18" fill="url(#gradient)"/>

    <!-- Silhouette enfant/bébé -->
    <ellipse cx="18" cy="0" rx="15" ry="20" fill="url(#heartGradient)" opacity="0.9"/>
    <circle cx="18" cy="-15" r="11" fill="url(#heartGradient)"/>

    <!-- Bras protecteur -->
    <path d="M -15,-10 Q 5,-5 15,-8" stroke="url(#gradient)" stroke-width="6" fill="none" stroke-linecap="round" opacity="0.7"/>
  </g>

  <!-- Éléments de soutien - lignes courbes apaisantes -->
  <path d="M 40,100 Q 70,80 100,100 T 160,100" stroke="url(#gradient)" stroke-width="2" fill="none" opacity="0.3"/>
  <path d="M 50,120 Q 75,105 100,120 T 150,120" stroke="url(#heartGradient)" stroke-width="2" fill="none" opacity="0.3"/>

  <!-- Points de connexion - représentent l'accompagnement -->
  <circle cx="55" cy="90" r="3" fill="url(#gradient)" opacity="0.5"/>
  <circle cx="145" cy="90" r="3" fill="url(#gradient)" opacity="0.5"/>
  <circle cx="70" cy="130" r="3" fill="url(#heartGradient)" opacity="0.5"/>
  <circle cx="130" cy="130" r="3" fill="url(#heartGradient)" opacity="0.5"/>
</svg>

